<?xml version="1.0" encoding="utf-8"?>
<!-- Generator: Adobe Illustrator 18.1.1, SVG Export Plug-In . SVG Version: 6.00 Build 0)  -->
<svg version="1.1" id="Layer_1" xmlns="http://www.w3.org/2000/svg" xmlns:xlink="http://www.w3.org/1999/xlink" x="0px" y="0px"
	 viewBox="0 0 103.3 120" enable-background="new 0 0 103.3 120" xml:space="preserve">
<g>
	<path fill="#383F4A" d="M21.5,12.6L20.3,22h3v5h-3.6l-0.9,6.9h-6.3l0.9-6.9H8.9L8,33.9H1.7L2.5,27h-2.8v-5h3.5l1.2-9.4h-3v-5h3.6
		L6,0.9h6.3l-0.9,6.7h4.5l0.9-6.7h6.3l-0.9,6.7H25v5H21.5z M9.5,22H14l1.2-9.4h-4.5L9.5,22z"/>
	<path fill="#383F4A" d="M29.5,28.1h8V8.3l-6.6,4l-3.4-5l10.7-6.5h6.8v27.2H51v5.8H29.5V28.1z"/>
	<path fill="#383F4A" d="M52.7,17.3c0-10.9,4-17.3,12-17.3c7.9,0,12,6.4,12,17.3c0,10.9-4,17.4-12,17.4
		C56.7,34.7,52.7,28.2,52.7,17.3z M69.2,17.3c0-8.8-1.5-11.8-4.5-11.8c-3.1,0-4.6,3.2-4.6,11.8c0,9,1.5,11.9,4.6,11.9
		C67.8,29.2,69.2,26.1,69.2,17.3z M64.6,14.3c1.8,0,3.1,1.4,3.1,3.1c0,1.8-1.3,3.1-3.1,3.1c-1.8,0-3.1-1.4-3.1-3.1
		C61.5,15.7,62.8,14.3,64.6,14.3z"/>
	<path fill="#383F4A" d="M79.4,17.3c0-10.9,4-17.3,12-17.3c7.9,0,12,6.4,12,17.3c0,10.9-4,17.4-12,17.4
		C83.4,34.7,79.4,28.2,79.4,17.3z M95.9,17.3c0-8.8-1.5-11.8-4.5-11.8c-3.1,0-4.6,3.2-4.6,11.8c0,9,1.5,11.9,4.6,11.9
		C94.5,29.2,95.9,26.1,95.9,17.3z M91.3,14.3c1.8,0,3.1,1.4,3.1,3.1c0,1.8-1.3,3.1-3.1,3.1c-1.8,0-3.1-1.4-3.1-3.1
		C88.2,15.7,89.6,14.3,91.3,14.3z"/>
	<path fill="#383F4A" d="M15.7,49.7V37.4l7.6,0.8v35.3h-6.8l-0.4-2.8c-1.4,2-3.7,3.6-7,3.6c-6.3,0-9.3-5.4-9.3-13.5
		c0-7.8,3.9-13.4,10.1-13.4C12.2,47.4,14.2,48.2,15.7,49.7z M7.8,60.9c0,6.2,1.6,7.9,3.9,7.9c1.6,0,3-1.1,4-2.9V55
		c-1-1.3-2.1-2-3.7-2C9.5,53,7.8,55.2,7.8,60.9z"/>
	<path fill="#383F4A" d="M50.2,66.2c0,1.9,0.5,2.6,1.7,3l-1.6,5c-3-0.3-5-1.2-6.2-3.3c-2,2.3-5.3,3.4-8.3,3.4c-5.2,0-8.6-3.3-8.6-8
		c0-5.5,4.6-8.6,12.4-8.6h3.4v-0.9c0-2.6-1.9-3.9-5-3.9c-1.5,0-4.3,0.5-6.9,1.3l-1.8-5c3.3-1.2,7.1-1.9,9.8-1.9c7.7,0,11.2,3,11.2,9
		V66.2z M42.9,66.2v-4h-1.8c-4.1,0-6,1.3-6,3.8c0,1.9,1.4,3,3.3,3C40,68.9,42,67.9,42.9,66.2z"/>
	<path fill="#383F4A" d="M52.9,48.3h8l4.8,20.1h0.2l5.2-20.1h7.8l-8.4,25.3c-2.2,6.8-6.5,10.2-14.2,10.6l-0.9-5.4
		c5-0.6,6.8-2,8.1-5.2h-2.6L52.9,48.3z"/>
	<path fill="#383F4A" d="M95.4,66.6c0-1.7-1-2.2-6-3.6c-4.6-1.2-7.8-3.4-7.8-7.8c0-4.5,3.9-7.8,11.1-7.8c4.3,0,7.9,1.3,10,2.9
		l-3,4.5c-1.9-1.2-4.3-1.9-6.8-1.9c-2.4,0-3.6,0.6-3.6,1.9c0,1.3,1,1.8,6,3.2c4.9,1.4,8.1,3,8.1,8c0,5.6-5.5,8.4-12,8.4
		c-4.9,0-8.7-1.4-11.3-3.7l3.8-4.2c2,1.5,4.5,2.5,7.4,2.5C93.7,68.9,95.4,68.2,95.4,66.6z"/>
	<path fill="#383F4A" d="M24.7,106.5c0,8.5-4.6,13.5-12.3,13.5C4.6,120,0,115,0,106.5C0,98.5,4.6,93,12.3,93
		C20.1,93,24.7,98.4,24.7,106.5z M7.9,106.5c0,5.6,1.4,7.9,4.5,7.9s4.5-2.3,4.5-8c0-5.4-1.4-7.8-4.5-7.8S7.9,101,7.9,106.5z"/>
	<path fill="#383F4A" d="M52.5,84.7l-2.1,5c-1.8-0.7-3.6-1-5.4-1c-3,0-4.1,1-4.1,3.5v3.3h7.8l-0.9,5.3h-6.9v18.4h-7.6v-18.4h-5.3
		v-5.3h5.3v-3.6c0-5,3.6-8.8,10.5-8.8C47.5,83,50.2,83.7,52.5,84.7z"/>
	<path fill="#383F4A" d="M57.5,109.3c3,0,5.3,2.4,5.3,5.3c0,2.9-2.4,5.3-5.3,5.3s-5.3-2.4-5.3-5.3C52.1,111.8,54.5,109.3,57.5,109.3
		z"/>
	<path fill="#383F4A" d="M76.9,109.3c3,0,5.3,2.4,5.3,5.3c0,2.9-2.4,5.3-5.3,5.3s-5.3-2.4-5.3-5.3C71.6,111.8,74,109.3,76.9,109.3z"
		/>
	<path fill="#383F4A" d="M96.4,109.3c3,0,5.3,2.4,5.3,5.3c0,2.9-2.4,5.3-5.3,5.3c-3,0-5.3-2.4-5.3-5.3
		C91,111.8,93.4,109.3,96.4,109.3z"/>
</g>
</svg>
